<svg version="1.1" id="Layer_1" xmlns="http://www.w3.org/2000/svg" xmlns:xlink="http://www.w3.org/1999/xlink" x="0px" y="0px"
	 width="100%" viewBox="0 0 512 320" enable-background="new 0 0 512 320" xml:space="preserve">
<path fill="#000000" opacity="1.000000" stroke="none" 
	d="
M268.339569,165.496048 
	C260.529358,167.762772 259.889984,168.339935 259.376709,176.247650 
	C259.104614,180.439499 257.897339,182.597610 253.133636,182.410324 
	C245.642380,182.115799 244.973740,182.211044 244.817627,176.387161 
	C244.644165,169.916138 241.713699,166.192841 234.511154,165.074875 
	C239.958755,158.664230 243.058029,151.983170 252.826096,152.440430 
	C267.661255,153.134903 281.684021,139.865051 283.823303,125.057495 
	C284.403473,121.041954 284.590363,117.167336 283.695465,113.206207 
	C283.278717,111.361511 282.983551,109.460045 280.938202,108.842728 
	C278.924744,108.235023 277.988922,110.032608 276.921936,111.214691 
	C272.794617,115.787338 268.648926,120.348900 264.686890,125.063187 
	C262.395050,127.790146 259.777222,128.902069 256.328125,127.946594 
	C256.167786,127.902168 256.004303,127.866219 255.840210,127.838585 
	C244.899109,125.996330 244.957230,125.985046 242.809692,115.016472 
	C242.144058,111.616776 242.831787,109.038406 245.408539,106.527672 
	C249.457138,102.582794 253.154541,98.269943 256.889709,94.015511 
	C258.037292,92.708412 259.898346,91.462761 259.189484,89.357689 
	C258.477051,87.242050 256.352905,87.387482 254.558121,87.102554 
	C239.584351,84.725410 222.625290,96.685394 219.451385,111.939888 
	C218.502304,116.501434 217.627197,121.086578 219.065445,125.748741 
	C219.458969,127.024353 219.637192,128.578613 218.749863,129.619308 
	C215.551270,133.370789 212.189835,136.983459 208.865173,140.676025 
	C206.088333,138.561737 205.595901,135.799911 204.999985,133.319717 
	C204.052658,129.376968 202.151047,127.048897 197.872284,127.139908 
	C197.056778,127.157257 196.235626,126.860085 195.415482,126.717262 
	C189.405487,125.670715 186.676056,120.443954 188.984787,114.575577 
	C189.503738,113.256485 190.422379,112.883247 191.635162,112.708572 
	C193.938004,112.376907 196.226074,111.839371 198.538803,111.704407 
	C201.808197,111.513603 203.781036,109.983238 204.678513,106.859779 
	C205.923096,102.528351 207.470062,98.309593 209.810806,94.428329 
	C211.195740,92.131912 210.951431,90.021782 209.254364,87.986954 
	C208.616592,87.222244 208.116272,86.344467 207.527756,85.536858 
	C202.987732,79.306831 203.662338,76.226341 210.349457,71.876190 
	C211.702011,70.996315 212.825348,71.071259 214.021179,71.868797 
	C215.266281,72.699219 216.610336,73.465012 217.636734,74.524803 
	C221.608231,78.625580 225.616043,79.165260 230.276978,75.487915 
	C231.898163,74.208824 234.162766,73.344627 236.228195,73.104042 
	C242.511398,72.372185 244.691772,68.439117 244.635330,62.839516 
	C244.584198,57.767159 246.920303,56.382919 251.733658,56.528194 
	C256.227539,56.663826 259.247253,56.888294 259.491608,62.684692 
	C259.837555,70.890602 260.259857,71.024841 268.100922,73.173851 
	C271.216858,74.027840 274.025513,75.452080 276.671021,77.118767 
	C279.431183,78.857689 281.459808,78.268990 283.862061,76.449875 
	C292.948334,69.569260 293.678864,69.757866 300.856659,80.211922 
	C293.025665,86.221893 293.055695,93.118698 297.291901,102.107224 
	C300.277161,108.441406 302.905457,112.584465 310.161041,112.406349 
	C316.763550,112.244278 314.917938,117.150681 315.274384,120.837936 
	C315.680695,125.041328 313.699738,126.394348 309.745911,126.429291 
	C303.465546,126.484787 298.821808,128.885696 298.089813,135.931366 
	C298.039917,136.411499 297.837860,136.925186 297.563629,137.325287 
	C292.872894,144.168427 292.245300,150.606628 299.046356,156.647568 
	C300.834625,158.235947 300.286011,160.267487 298.633240,161.925385 
	C297.221893,163.341125 295.798218,164.748199 294.454132,166.226501 
	C292.765381,168.083832 291.075317,168.093094 289.282349,166.428238 
	C289.161194,166.315735 288.995331,166.249390 288.881287,166.131546 
	C283.581573,160.656525 277.910126,159.235397 271.511353,164.393402 
	C270.783813,164.979874 269.655212,165.068741 268.339569,165.496048 
z"/>
<path fill="#000000" opacity="1.000000" stroke="none" 
	d="
M116.771912,200.794449 
	C118.402580,200.867950 119.580879,200.835342 120.720276,201.030197 
	C133.672272,203.245209 136.935928,211.334290 128.948975,222.152618 
	C132.007568,224.598618 135.002594,227.176147 135.302032,231.580917 
	C135.778290,238.586411 131.022888,244.328598 122.800446,245.013931 
	C114.869316,245.674988 106.847237,245.240707 98.865189,245.297760 
	C96.498184,245.314667 95.682358,243.995316 95.684753,241.817627 
	C95.698463,229.341614 95.715111,216.865433 95.664017,204.389572 
	C95.651863,201.420761 97.335052,200.773499 99.832771,200.791092 
	C105.322075,200.829712 110.811874,200.797363 116.771912,200.794449 
M111.873253,228.028793 
	C108.997932,228.003860 108.117790,229.612518 108.382629,232.224762 
	C108.655205,234.913208 110.697884,234.653427 112.488045,234.666733 
	C114.478035,234.681534 116.507202,234.734360 118.448395,234.381027 
	C120.102493,234.079926 121.645561,233.149536 121.616379,231.086792 
	C121.585670,228.916519 119.959114,228.362488 118.218697,228.196671 
	C116.402565,228.023636 114.568024,228.043884 111.873253,228.028793 
M117.618919,217.572830 
	C119.723587,216.676804 120.627823,214.919449 119.015266,213.317398 
	C116.603241,210.921127 113.247787,210.963257 110.129066,211.699432 
	C108.030930,212.194672 108.289574,214.198898 108.476212,215.847763 
	C108.664902,217.514648 109.957458,217.934174 111.367493,217.937103 
	C113.184021,217.940887 115.000824,217.813095 117.618919,217.572830 
z"/>
<path fill="#000000" opacity="1.000000" stroke="none" 
	d="
M333.807739,234.591171 
	C333.068390,229.185974 335.353271,225.511703 338.916809,222.695404 
	C339.190430,221.050476 338.061707,220.366302 337.433777,219.444351 
	C333.504730,213.675842 334.835602,206.616196 340.948120,203.088348 
	C347.732513,199.172745 354.983612,198.952728 361.970764,202.438644 
	C369.887207,206.388199 370.883240,213.562744 365.049255,222.106354 
	C366.438049,223.893616 368.103577,225.560867 369.199982,227.542938 
	C371.823029,232.284714 370.346680,238.215073 365.898041,241.903656 
	C358.918488,247.690720 344.802277,247.593292 337.888916,241.745667 
	C335.761292,239.946045 334.583801,237.624451 333.807739,234.591171 
M352.371674,227.422668 
	C349.229126,227.596741 346.320526,228.764694 346.837738,232.276138 
	C347.283844,235.304916 350.287933,236.041595 353.188385,235.670181 
	C355.329803,235.395966 357.149597,234.277878 357.427124,232.068741 
	C357.804199,229.067474 355.308167,228.297516 352.371674,227.422668 
M349.772919,217.665192 
	C352.516602,219.355469 354.626282,218.179489 356.102936,215.897110 
	C357.291870,214.059479 356.370850,212.343613 354.681244,211.214554 
	C352.616455,209.834778 350.535767,210.087524 348.809296,211.819626 
	C346.931305,213.703690 346.988831,215.608521 349.772919,217.665192 
z"/>
<path fill="#000000" opacity="1.000000" stroke="none" 
	d="
M295.676514,240.832703 
	C295.669495,228.207413 295.857849,216.059387 295.583771,203.921799 
	C295.471161,198.934540 298.108856,198.697220 301.841858,198.748825 
	C305.585785,198.800598 309.011505,198.591568 308.401672,204.058563 
	C308.072815,207.006714 308.343140,210.021683 308.343140,212.947189 
	C310.006378,213.904968 310.486450,212.310989 311.346069,211.844620 
	C320.229370,207.024780 329.631897,211.905853 330.149017,221.906204 
	C330.483582,228.376511 330.189880,234.878311 330.221191,241.365784 
	C330.233856,243.989212 329.207672,245.447159 326.387512,245.320389 
	C324.561340,245.238297 322.725067,245.229996 320.899597,245.318436 
	C318.079193,245.455063 317.008789,243.974915 317.000092,241.378555 
	C316.985077,236.887192 316.970551,232.395798 316.940094,227.904526 
	C316.920929,225.078568 316.391327,222.030212 313.110474,221.885620 
	C309.850067,221.741928 308.841919,224.927597 308.602722,227.555771 
	C308.212097,231.848434 308.378052,236.192444 308.326782,240.515015 
	C308.298462,242.905258 308.400452,245.768417 304.944611,245.184387 
	C301.659729,244.629211 296.361542,248.229843 295.676514,240.832703 
z"/>
<path fill="#000000" opacity="1.000000" stroke="none" 
	d="
M408.217102,242.825302 
	C407.296753,245.998642 404.965088,245.262955 403.121796,245.284439 
	C395.303009,245.375565 387.480927,245.418823 379.663910,245.273117 
	C377.396301,245.230835 374.086487,246.564911 373.304535,243.125778 
	C372.497009,239.574249 372.336426,235.834854 375.985992,233.209564 
	C379.899994,230.394043 383.709625,227.430267 387.507324,224.457687 
	C389.205811,223.128204 390.814972,221.672562 392.372803,220.178391 
	C394.279602,218.349518 395.884613,216.057800 393.927490,213.636444 
	C391.920776,211.153793 389.152557,211.870667 386.690613,213.357193 
	C381.255402,216.638977 379.369812,216.432236 375.387177,212.013626 
	C374.483429,211.010986 373.691315,210.080444 374.416870,208.500641 
	C376.336395,204.320938 385.509155,199.783310 391.699982,200.083862 
	C399.855865,200.479782 405.375427,204.007111 407.380310,210.181320 
	C409.333313,216.195648 407.702545,221.405869 403.292328,225.646790 
	C400.224396,228.596939 396.754486,231.129044 392.486847,234.655487 
	C396.001007,234.655487 398.424561,234.659637 400.848114,234.654709 
	C408.380005,234.639420 408.380005,234.638092 408.217102,242.825302 
z"/>
<path fill="#000000" opacity="1.000000" stroke="none" 
	d="
M163.281525,210.734711 
	C174.599411,210.724075 173.220963,209.716827 173.312042,220.374634 
	C173.369003,227.040359 173.175644,233.711136 173.369553,240.371628 
	C173.473923,243.956573 172.357224,245.480026 168.559647,245.403214 
	C162.807083,245.286835 157.214050,244.387970 151.228714,245.906235 
	C144.503250,247.612274 139.287384,242.010605 138.881439,234.126419 
	C138.547668,227.644257 138.839127,221.131271 138.790100,214.632401 
	C138.769821,211.944550 139.938080,210.864838 142.667953,210.654480 
	C151.571350,209.968353 151.924515,210.220291 151.972977,219.285202 
	C151.992584,222.949600 151.977509,226.618286 152.157837,230.276169 
	C152.264816,232.446014 153.334061,234.354706 155.704193,234.389999 
	C158.187332,234.426956 159.741501,232.784821 159.824387,230.262863 
	C159.983063,225.435135 159.907852,220.600006 160.043747,215.771149 
	C160.102188,213.694763 159.688156,211.203094 163.281525,210.734711 
z"/>
<path fill="#000000" opacity="1.000000" stroke="none" 
	d="
M222.031021,232.301422 
	C221.001480,219.688721 225.371094,212.935562 235.771240,210.475815 
	C246.856415,207.854065 257.449158,217.271927 256.358643,228.588562 
	C256.067261,231.612335 254.372498,232.082047 252.007858,232.086731 
	C246.422821,232.097794 240.837769,232.090271 234.584885,232.090271 
	C237.734390,236.968536 241.650986,236.803299 245.214096,234.651443 
	C249.781830,231.892868 252.081696,235.345825 253.784912,237.802582 
	C256.043182,241.059937 252.190994,242.238358 250.147949,243.501572 
	C240.965729,249.178909 225.289200,246.352402 222.031021,232.301422 
M235.640381,221.763474 
	C234.722916,223.019516 234.279175,224.367355 236.394836,224.548904 
	C238.593719,224.737595 240.931320,225.208786 243.258972,223.760910 
	C241.897827,219.680496 239.471848,219.275009 235.640381,221.763474 
z"/>
<path fill="#000000" opacity="1.000000" stroke="none" 
	d="
M197.559341,221.574463 
	C193.885178,217.994003 193.828552,212.864548 197.471420,210.719803 
	C199.538422,209.502869 199.033218,207.991714 198.994949,206.474503 
	C198.881332,201.970810 201.899277,201.857452 205.069229,202.045090 
	C208.168198,202.228516 212.316742,200.913452 212.176483,206.384201 
	C212.105988,209.133286 212.849319,210.865387 216.072876,210.739288 
	C220.612991,210.561722 219.694778,214.086517 219.887604,216.754013 
	C220.075531,219.353729 219.584671,221.519775 216.232071,221.291031 
	C211.714859,220.982803 212.248520,224.180405 212.222916,227.010010 
	C212.156342,234.363129 212.153610,234.363098 218.755554,234.889725 
	C221.102264,241.196884 220.335358,243.988449 215.867386,245.402649 
	C208.388184,247.769928 201.447250,244.988449 199.765640,238.929596 
	C198.771042,235.346130 199.045959,231.669525 198.971054,228.011841 
	C198.927933,225.906555 199.509338,223.645630 197.559341,221.574463 
z"/>
<path fill="#000000" opacity="1.000000" stroke="none" 
	d="
M291.996521,238.086700 
	C287.893799,245.220688 279.973022,247.871475 271.596008,245.295013 
	C263.659027,242.853897 258.714935,235.580963 259.149506,226.985718 
	C259.547485,219.114868 265.157471,212.378464 272.947601,210.750748 
	C279.468231,209.388260 285.491516,210.357315 290.466217,215.271042 
	C292.259430,217.042267 292.459045,218.525162 290.203430,220.115967 
	C287.073242,222.323608 284.546448,225.916550 279.991638,221.924438 
	C278.083862,220.252319 275.159088,221.188263 273.377594,223.467300 
	C271.166534,226.295898 271.114532,229.316147 273.074158,232.247879 
	C274.764435,234.776703 277.742645,236.010696 280.014648,234.372604 
	C285.776886,230.218002 288.625000,234.386017 291.996521,238.086700 
z"/>
<path fill="#000000" opacity="1.000000" stroke="none" 
	d="
M178.674194,206.096252 
	C178.772522,199.438751 183.883850,196.434464 189.667725,199.060181 
	C191.243484,199.775528 191.294556,201.050507 191.296875,202.361115 
	C191.320206,215.512985 191.283386,228.664993 191.326111,241.816772 
	C191.334518,244.405624 190.132065,245.433899 187.665207,245.309357 
	C186.835419,245.267487 185.987549,245.225082 185.170822,245.342270 
	C180.268448,246.045685 178.379028,244.258194 178.558350,239.044144 
	C178.930054,228.235458 178.671982,217.405090 178.674194,206.096252 
z"/>
<path fill="#000000" opacity="1.000000" stroke="none" 
	d="
M173.983673,271.014648 
	C177.053452,267.708618 176.952026,262.571808 180.843964,259.093018 
	C182.633133,262.340820 184.281677,265.333344 186.077789,268.593750 
	C187.422394,267.201538 187.102524,265.638031 187.289291,264.313507 
	C188.071747,258.764771 190.481567,257.088470 195.501709,259.526825 
	C197.884689,260.684265 199.612000,260.999908 201.413193,258.988708 
	C203.974289,263.549377 203.794724,269.653931 201.217682,272.812714 
	C199.841141,270.866547 199.841141,270.866547 199.335403,265.240234 
	C197.097900,267.514496 197.296936,270.083862 197.501480,272.549164 
	C194.529129,273.726959 193.805191,270.473175 191.438950,270.123779 
	C189.440628,273.496521 186.624664,274.173187 183.294785,271.607147 
	C181.396133,270.144012 179.586868,270.414398 177.831314,271.781555 
	C176.549911,272.779510 175.343903,273.728577 174.144287,271.277039 
	C174.004730,270.984955 173.983673,271.014648 173.983673,271.014648 
M191.868958,266.458557 
	C193.860474,266.553345 195.723724,266.253479 195.214417,263.653473 
	C194.929153,262.197327 193.306793,261.604919 192.051544,261.998047 
	C189.520706,262.790619 190.175278,264.515228 191.868958,266.458557 
z"/>
<path fill="#000000" opacity="1.000000" stroke="none" 
	d="
M252.694580,273.346619 
	C248.766159,273.622833 247.483780,271.849426 247.736923,268.534760 
	C247.837616,267.216339 247.750763,265.879883 247.692245,264.554138 
	C247.635025,263.257751 247.855682,261.710632 245.876572,261.632507 
	C243.908600,261.554810 243.444305,262.800812 243.263321,264.504822 
	C242.968262,267.282898 244.141571,270.376373 241.786102,273.257538 
	C237.689575,269.365448 242.570969,263.035065 235.739929,259.627594 
	C243.724854,258.487549 250.052933,258.555542 256.569092,259.355927 
	C255.990509,262.309540 253.922668,261.449341 252.523788,262.508362 
	C258.431549,265.819061 251.596191,266.598114 251.166336,268.371552 
	C252.126007,271.367126 255.060333,269.740509 256.337463,271.554779 
	C256.288971,273.810547 254.391830,273.071259 252.694580,273.346619 
z"/>
<path fill="#000000" opacity="1.000000" stroke="none" 
	d="
M220.553040,267.666138 
	C219.939560,269.543884 220.976151,271.715973 218.709808,272.694672 
	C216.432022,269.741791 216.134613,265.175507 217.902145,259.698303 
	C221.223312,259.991364 222.055252,263.791565 224.935928,264.766693 
	C226.983154,263.571716 224.725632,260.321381 227.377533,259.401672 
	C229.640518,262.024048 230.052765,266.499146 228.529160,272.194611 
	C224.644348,272.684875 224.437271,267.066437 220.553040,267.666138 
z"/>
<path fill="#000000" opacity="1.000000" stroke="none" 
	d="
M174.013351,270.968384 
	C171.152924,273.823547 167.872299,273.897034 164.436966,272.226410 
	C161.924255,271.004456 160.888565,268.692871 160.989273,266.083710 
	C161.113266,262.870880 162.740570,260.423523 165.802994,259.146454 
	C168.704407,257.936554 171.151489,258.459839 173.723129,261.614685 
	C169.732651,262.704620 163.589081,260.299774 164.593338,267.271515 
	C164.935577,269.647369 166.716461,270.855164 169.033798,270.194550 
	C170.611465,268.243652 168.300552,267.257416 168.564987,265.749695 
	C169.755280,264.007996 171.337280,264.631256 173.070755,264.784637 
	C173.354980,266.823456 173.602539,268.599213 173.916870,270.694824 
	C173.983673,271.014648 174.004730,270.984955 174.013351,270.968384 
z"/>
<path fill="#000000" opacity="1.000000" stroke="none" 
	d="
M322.967957,266.735107 
	C323.974091,260.626343 327.212830,257.911926 331.802673,258.872833 
	C335.804810,259.710693 338.027313,263.154510 337.342468,267.443542 
	C336.797729,270.855011 334.629669,272.781403 331.383545,273.144928 
	C326.956512,273.640686 324.151581,271.455231 322.967957,266.735107 
M332.866852,262.748199 
	C330.517731,260.858124 328.597015,261.616974 327.052765,263.814850 
	C325.721649,265.709381 326.148590,267.523560 327.660889,269.154205 
	C329.130646,270.738953 330.751648,270.807343 332.488892,269.622620 
	C335.139496,267.815002 334.872162,265.616608 332.866852,262.748199 
z"/>
<path fill="#000000" opacity="1.000000" stroke="none" 
	d="
M131.808777,273.281860 
	C127.748222,273.818329 126.156143,272.329498 126.592613,268.578247 
	C126.801666,266.781525 126.659134,264.942444 126.654541,263.122589 
	C126.648689,260.804413 126.917313,258.691376 129.989517,258.753387 
	C132.540222,258.804840 135.087280,258.886078 135.627747,262.245026 
	C135.783463,263.212646 136.007965,264.185699 136.340820,265.105652 
	C138.252304,270.388428 137.661194,271.581360 131.808777,273.281860 
M133.279251,269.908539 
	C135.312973,268.223145 134.403763,267.067596 132.484772,266.410950 
	C131.039902,265.916534 129.759354,266.575592 129.557587,268.156555 
	C129.228760,270.733429 130.844101,270.745178 133.279251,269.908539 
z"/>
<path fill="#000000" opacity="1.000000" stroke="none" 
	d="
M299.511536,270.387634 
	C297.126221,265.336884 297.835388,262.003662 301.509460,259.867676 
	C305.022552,257.825287 308.216553,258.506134 310.883026,261.381561 
	C313.321442,264.011108 313.100891,268.887024 310.327057,271.249298 
	C306.750244,274.295319 303.119873,273.991669 299.511536,270.387634 
M301.364685,265.020264 
	C300.840210,267.963318 302.014252,269.971680 304.941650,270.447113 
	C307.205170,270.814728 308.657806,269.284363 309.359680,267.263000 
	C310.126862,265.053497 309.162567,263.401825 307.214294,262.314697 
	C304.603577,260.857880 302.840637,261.930115 301.364685,265.020264 
z"/>
<path fill="#000000" opacity="1.000000" stroke="none" 
	d="
M292.770508,264.611084 
	C294.176453,262.991486 292.931610,260.692047 295.153625,259.134155 
	C297.659576,263.581665 296.258728,267.912506 296.034760,272.596344 
	C292.257477,271.573456 291.385376,267.623352 288.303040,266.852020 
	C286.232880,268.349365 288.529846,271.422546 285.287109,272.825684 
	C283.730652,268.250153 285.191040,263.819366 284.503479,259.009430 
	C288.545410,260.050018 289.325928,264.073090 292.770508,264.611084 
z"/>
<path fill="#000000" opacity="1.000000" stroke="none" 
	d="
M348.066650,259.065948 
	C349.408600,259.756866 350.629333,260.171082 350.065826,261.806335 
	C348.804565,263.109619 347.637421,261.645294 346.416534,261.591156 
	C344.512115,261.506714 343.312134,262.555237 342.330414,263.979950 
	C341.376892,265.363770 341.405029,266.781525 342.339203,268.168152 
	C343.439209,269.800964 345.081665,271.184235 346.898071,270.260895 
	C349.878326,268.745911 346.525665,267.399872 346.301270,265.662781 
	C348.075531,264.447601 350.141052,263.805817 350.960419,266.335205 
	C351.749207,268.770050 352.052185,271.841003 348.478302,272.887878 
	C345.604431,273.729706 342.832062,273.447723 340.651520,271.123840 
	C338.348633,268.669586 337.971558,265.704895 339.384155,262.800354 
	C341.033173,259.409576 344.033722,258.259491 348.066650,259.065948 
z"/>
<path fill="#000000" opacity="1.000000" stroke="none" 
	d="
M204.407028,272.208618 
	C204.906631,267.399658 207.525024,263.741852 209.524979,258.437653 
	C213.057297,263.339233 214.596161,267.751923 215.794891,273.155487 
	C211.870117,268.708862 208.227844,270.995026 204.407028,272.208618 
z"/>
<path fill="#000000" opacity="1.000000" stroke="none" 
	d="
M358.545563,272.345642 
	C357.376678,269.578644 357.757385,267.059174 357.739868,264.586243 
	C357.696533,258.469971 360.275208,257.142456 366.196564,260.159363 
	C365.727539,262.552032 363.430695,261.343231 362.128906,262.199890 
	C362.533783,263.457611 364.760040,263.241058 364.409302,265.063354 
	C359.945007,268.950134 359.989777,269.113464 366.609192,271.845093 
	C364.072632,274.125488 361.476837,273.528625 358.545563,272.345642 
z"/>
<path fill="#000000" opacity="1.000000" stroke="none" 
	d="
M274.075470,271.621429 
	C272.696411,273.382233 271.538605,272.533142 271.560974,271.307617 
	C271.633911,267.313782 271.009796,263.230042 272.092651,259.170685 
	C275.636230,259.692749 273.009430,264.751556 277.005554,264.601135 
	C280.752136,264.460144 278.666626,260.243103 281.794617,258.933563 
	C283.235413,263.669464 282.235779,268.051086 281.912140,272.967499 
	C278.690948,271.755981 280.649841,266.822815 276.593109,267.504181 
	C274.327454,267.884705 274.434509,269.665100 274.075470,271.621429 
z"/>
<path fill="#000000" opacity="1.000000" stroke="none" 
	d="
M138.664703,268.223877 
	C138.054214,264.902191 138.563049,262.143097 139.453781,258.442871 
	C142.141144,261.365723 141.074539,263.946564 141.402191,266.206329 
	C141.683609,268.147400 142.281235,270.007904 144.487732,270.066345 
	C146.624420,270.122955 146.901871,268.133270 147.182251,266.494904 
	C147.580612,264.167206 147.886948,261.823822 148.333878,258.802521 
	C151.579376,263.953705 150.736282,270.902832 147.272125,272.654816 
	C143.911270,274.354553 140.838379,272.901978 138.664703,268.223877 
z"/>
<path fill="#000000" opacity="1.000000" stroke="none" 
	d="
M261.655151,268.213501 
	C263.609222,271.655975 266.814453,269.888763 269.544861,270.367462 
	C266.628845,273.897522 262.774384,274.061951 259.785126,271.106750 
	C256.902313,268.256775 256.881744,263.508240 259.740814,260.873932 
	C262.965668,257.902618 266.550354,258.061249 269.654877,261.653625 
	C265.511383,262.046417 260.076660,260.887665 261.655151,268.213501 
z"/>
<path fill="#000000" opacity="1.000000" stroke="none" 
	d="
M376.430145,271.351257 
	C373.457184,273.860992 370.953918,273.743561 368.530975,271.323303 
	C369.767334,268.306946 372.680359,272.247681 373.827484,268.972260 
	C373.203247,265.957214 365.003479,265.474854 369.635925,259.995239 
	C371.366516,257.948181 373.984894,258.125427 375.847198,260.286591 
	C375.459869,262.578949 372.990631,261.432526 372.350067,262.936707 
	C373.875000,265.703125 378.699677,266.568176 376.430145,271.351257 
z"/>
<path fill="#000000" opacity="1.000000" stroke="none" 
	d="
M313.929810,269.652283 
	C313.942841,265.842773 313.327789,262.383423 315.005951,258.956055 
	C318.119110,260.448975 317.503113,262.958893 317.329865,264.846191 
	C316.989258,268.556488 317.574646,271.174713 322.234772,270.954498 
	C319.362305,274.780487 315.751709,274.222473 313.929810,269.652283 
z"/>
<path fill="#000000" opacity="1.000000" stroke="none" 
	d="
M152.375565,271.387939 
	C151.491882,263.211609 151.627014,262.191833 153.878860,259.242737 
	C157.678955,262.541931 151.423264,270.503296 160.445190,271.412933 
	C157.261383,273.842194 154.927048,274.104065 152.375565,271.387939 
z"/>
<path fill="#000000" opacity="1.000000" stroke="none" 
	d="
M356.141968,265.100952 
	C355.816162,267.870300 356.953369,270.488007 354.829742,272.518433 
	C352.163147,269.537567 352.044495,263.193268 354.528229,259.363495 
	C356.767181,260.615387 355.922119,262.799622 356.141968,265.100952 
z"/>
</svg>